M48
INCH
T01C0.1574
T02C0.0300
T03C0.0400
T04C0.0600
T05C0.0472
T06C0.0354
%
T01
X+017031Y+024500
X+017031Y+002000
X+034370Y+013779
T02
X+025555Y+009728
X+025555Y+010728
X+025555Y+011728
X+025555Y+012728
X+025555Y+013728
X+025555Y+014728
X+025555Y+015728
X+022555Y+015728
X+022555Y+014728
X+022555Y+013728
X+022555Y+012728
X+022555Y+011728
X+022555Y+010728
X+022555Y+009728
X+025444Y+006271
X+021444Y+006271
X+017555Y+020478
X+021555Y+020478
X+020555Y+016228
X+016555Y+016228
X+016555Y+015228
X+020555Y+015228
X+025500Y+017000
X+025500Y+018000
X+004000Y+013500
X+004000Y+012500
X+010521Y+005055
X+007521Y+005055
X+020555Y+010728
X+016555Y+010728
X+016555Y+011728
X+020555Y+011728
X+030728Y+010444
X+030728Y+009444
X+030444Y+015771
X+026444Y+015771
T03
X+021444Y+008271
X+020444Y+008271
X+021444Y+019021
X+020444Y+019021
X+012543Y+008610
X+012543Y+007610
X+012543Y+006610
X+003500Y+018500
X+003500Y+019500
X+003500Y+020500
X+014000Y+015000
X+014000Y+016000
T04
X+010261Y+007555
X+007271Y+007555
X+007271Y+015555
X+010261Y+015555
X+007271Y+013555
X+010261Y+013555
X+007271Y+017555
X+010261Y+017555
T05
X+034000Y+018500
X+034000Y+017000
X+029000Y+014000
X+029000Y+012500
X+001000Y+010000
X+001000Y+008500
X+001000Y+013000
X+001000Y+011500
X+015000Y+025000
X+013500Y+025000
X+033500Y+010500
X+033500Y+009000
X+004000Y+011000
X+004000Y+008834
X+004000Y+004897
X+004000Y+002732
X+001000Y+003500
X+001000Y+005000
X+014000Y+022000
X+011834Y+022000
X+007897Y+022000
X+005732Y+022000
X+008000Y+025000
X+006500Y+025000
X+029000Y+009000
X+029000Y+007500
T06
X+028000Y+021500
X+028000Y+022484
X+028000Y+023468
X+029968Y+021007
X+029968Y+021992
X+029968Y+022976
X+029968Y+023960
M30
