M48
INCH
T01C0.1574
T02C0.0300
T03C0.0250
T04C0.0472
%
T01
X+019000Y+024500
X+019000Y+002000
X+001500Y+013500
T02
X+006767Y+012968
X+006767Y+013968
X+004031Y+015767
X+004031Y+019767
X+005031Y+018767
X+005031Y+022767
X+006531Y+019767
X+006531Y+023767
X+006468Y+007232
X+006468Y+003232
X+004968Y+008232
X+004968Y+004232
X+003968Y+011232
X+003968Y+007232
X+013500Y+020000
X+013500Y+021000
X+013000Y+006500
X+013000Y+005500
T03
X+007992Y+024000
X+010000Y+023330
X+007992Y+022661
X+010000Y+021992
X+007992Y+021322
X+010000Y+020653
X+007992Y+019984
X+010000Y+019314
X+007992Y+018645
X+010000Y+017976
X+007992Y+017307
X+007992Y+009000
X+010000Y+008330
X+007992Y+007661
X+010000Y+006992
X+007992Y+006322
X+010000Y+005653
X+007992Y+004984
X+010000Y+004314
X+007992Y+003645
X+010000Y+002976
X+007992Y+002307
T04
X+005000Y+014000
X+005000Y+012500
X+001500Y+003000
X+001500Y+004500
X+001500Y+019500
X+001500Y+018000
X+001500Y+024000
X+001500Y+022500
X+001500Y+007000
X+001500Y+008500
X+019000Y+019500
X+019000Y+021000
X+019000Y+004500
X+019000Y+006000
X+019000Y+014500
X+019000Y+016000
X+019000Y+010500
X+019000Y+012000
M30
